<svg xmlns="http://www.w3.org/2000/svg" width="250" height="48" viewBox="0 0 768 145"><path fill="#F1C40F" d="M672 88c7-20 33-23 53-23 11 0 40 3 40 20 0 3-2 6-4 9 4 4 7 10 7 18 0 28-29 33-52 33-11 0-39 0-45-13-1 2-2 4-4 6v1c-5 4-10 4-17 4h-19c-6 0-11 0-15-4-8 4-18 6-27 6-12 0-22-2-31-9-4-4-7-7-9-12-1 8-9 13-15 15-10 5-22 6-32 6-13 0-27-3-38-10-10-7-17-18-17-30v-4h-3c-4 0-8-1-11-3-1 0-3-1-4-1h-3c1 4 1 7 1 11 0 9 0 23-7 30v1c-5 4-10 4-16 4h-20c-6 0-12 0-16-4l-1-1c-3-4-5-10-6-16-1 5-2 10-4 14-4 7-11 7-18 7h-20c-6 0-11 0-14-4-9 4-18 6-28 6-11 0-21-2-30-9-4-4-8-8-10-13-1 7-3 14-7 17l-1 1c-4 2-7 2-11 2h-26c-11 0-19-5-21-14-1 4-2 7-5 9v1c-4 4-10 4-16 4h-20c-6 0-11 0-16-4v-1c-4-4-6-11-6-17-1 5-2 11-5 14-4 7-10 8-18 8H59c-7 0-13 0-17-7-4-6-5-16-6-24h-1c0 7 0 16-2 21-1 8-8 12-16 12-4 0-9-1-12-4-5-4-5-11-5-17v-14c0-14 0-34 7-47 10-17 24-21 43-21h30c8 0 15 0 20 6 4-2 8-3 12-3h4v-9c0-9 0-25 6-31 4-4 10-5 15-5h10c6 0 11 1 15 5h1c3 3 4 8 5 13 2-1 5-2 8-2h16c6 0 11 2 14 6v-1c4-4 9-5 14-5h11c5 0 10 1 14 5 1 1 1 2 2 4 7-8 21-10 32-10 5 0 12 1 18 3 2-4 6-6 10-6 2-5 4-9 9-11 4-2 8-1 11 1l3 1 2-1c3-2 7-2 11-1 5 2 8 6 9 11 7 1 11 6 11 13 0 6-3 11-9 12v6l3 3c2 4 3 10 4 15 1 8 1 16 1 24 1-3 2-6 3-8v-1c5-8 11-9 20-9h17c7 0 13 1 17 5 6-4 13-7 21-7 9 0 18 5 21 13 2-1 3-2 5-3 11-7 25-10 38-10 15 0 39 3 47 19 2-3 5-7 9-9 9-7 20-10 31-10 8 0 18 3 25 6 4-3 9-4 15-4h18c7 0 13 0 18 6 3 4 5 9 5 15z"/><path fill="red" d="M26 88c0-20 8-32 18-32 3 0 3 1 3 2 0 2-1 12-1 33 0 2-1 3-2 3 0 0-3-1-8-1s-8 1-9 1-1-1-1-6zM137 9c-4 0-7 0-8 2-3 3-4 11-4 25 0 15 2 22 2 22 0 1 0 1-1 1s-1-1-2-1c-4-3-7-4-12-4s-9 2-9 5c0 4 8 5 23 5 23 0 33-8 33-29 0-14-1-21-3-24-2-2-4-2-9-2h-10zm83 16c-3 0-5 0-7 2s-3 8-3 18c0 5 1 7 1 8s-3 2-6 2c-4 0-5-3-5-9V33c0-5-2-8-8-8h-16c-3 0-4 1-5 3-1 1-2 6-2 13 0 16 6 23 20 23 7 0 14-3 21-7h1s0 1 1 3c2 3 3 3 6 3h14c3 0 5 0 6-2 2-2 3-7 3-14 0-11-1-17-3-20-1-2-4-2-7-2h-11zm30 32c0 4 8 7 24 7 18 0 27-5 27-16 0-8-6-12-18-13-5 0-8 0-8-3s2-4 6-4c5 0 8 1 12 3 2 1 3 2 4 2 2 0 2-1 2-2 0-3-7-7-20-7-19 0-28 5-28 15 0 9 6 11 18 13 5 1 9 1 9 4s-2 4-6 4c-6 0-10-1-15-3-2-1-3-2-5-2-1 0-2 0-2 2zm95-10v-7-10c0-2 0-3 2-3 1 0 3 1 4 1 2 0 3-1 3-3 0-3-1-4-3-4s-4 1-5 1c-3 0-1-3-3-7-1-4-3-7-6-5l-7 4-7-4c-4-3-6 1-7 7-1 3 0 5-2 5-1 0-3-1-6-1-2 0-3 1-3 3 0 3 1 4 3 4h5c1 0 1 0 1 1v3c0 6 0 11 1 15-5 1-7 5-8 15s0 19-2 19h-1l-1-1c-6-3-13-5-24-5-10 0-18 1-25 6-8 6-13 15-13 24s4 18 12 24c6 5 14 7 24 7 11 0 21-3 29-8h1v-1c1 0 1 1 1 1l1 1c2 5 5 5 10 5h20c5 0 8 0 10-3 3-5 4-15 4-32 0-14 0-29-1-37-1-5-2-9-3-11s-2-3-4-4zM50 51c-17 0-28 4-35 17-5 9-6 22-6 42v14c0 9 1 12 8 12 4 0 7-2 7-5 2-5 1-14 2-26 0-2 0-4 2-4 1 0 3 2 8 2s8-2 9-2v6c0 12 2 20 5 24 2 3 5 3 9 3h26c6 0 9 0 11-4 3-4 3-15 3-33 0-24-1-38-5-43-3-3-7-3-14-3H50zm100 83c5 0 8 0 10-2 3-3 4-11 4-24 0-10-1-15-1-16 0-2 5-3 9-3 6 0 8 4 8 14v20c0 8 3 11 12 11h26c2 0 4 0 6-1 2-2 5-10 5-23 0-25-10-35-32-35-10 0-19 2-29 8l-4 2h-1c-1 0-1 0-1-1-3-7-5-8-14-8h-17c-6 0-9 1-11 5-2 3-4 13-4 29 0 11 1 19 5 22 2 2 5 2 9 2h20zm156-47c-1 6-1 11-1 14 0 6 1 13 1 20 0 2-2 3-4 3-6 0-12-8-12-20s5-19 11-19c2 0 3 1 5 2zm98 47c4 0 7 0 9-2 4-3 5-11 5-24 0-9-1-13-1-14 0-4 5-6 12-6 5 0 9 4 15 4s9-3 9-8-5-9-13-9-15 3-22 10c-1 1-1 1-2 1v-2c-2-7-6-8-14-8h-17c-6 0-9 1-12 5-2 3-3 13-3 29 0 11 1 19 4 22 2 2 5 2 10 2h20zm114-53c3 0 6 4 6 10 0 7-4 13-8 13s-5-3-5-8c0-10 2-15 7-15zm-62 24c0 8 4 17 13 23 8 5 20 8 33 8 25 0 38-9 38-14 0-1-1-2-2-2-2 0-6 7-14 7-7 0-13-7-13-15 0-3 1-4 2-4s3 1 7 1c15 0 23-6 23-16 0-11-13-18-39-18-14 0-25 3-34 8-9 6-14 14-14 22zm177-29h-2c-6 0-8 1-11 5l-1 1h-1l-2-1c-7-4-17-6-25-6-10 0-18 2-26 7-8 6-12 14-12 24 0 8 4 17 11 23 7 5 15 7 25 7s21-3 29-8c1 0 1-1 1-1l1 1v1c2 5 5 5 11 5h19c5 0 8 0 10-2 3-3 5-11 5-22 0-17-2-27-5-31-2-3-6-3-11-3h-16zm-16 11v34c0 2-1 3-4 3-5 0-12-8-12-20s6-19 12-19c1 0 3 1 4 2zm62 38c0 7 13 11 37 11 28 0 43-7 43-24 0-14-10-19-29-20-8-1-13-1-13-6 0-4 4-6 10-6 8 0 13 1 19 5 2 1 4 3 6 3s4-1 4-3c0-5-12-11-31-11-30 0-45 7-45 24 0 13 9 17 28 20 9 1 14 1 14 6s-3 6-10 6c-8 0-15-1-22-5-3-2-5-3-8-3-2 0-3 1-3 3z"/></svg>